<svg aria-roledescription="er" role="graphics-document document" viewBox="0 0 710.515625 840" style="max-width: 710.515625px;" xmlns="http://www.w3.org/2000/svg" width="100%" id="mermaidSvgChart"><style>#mermaidSvgChart{font-family:"trebuchet ms",verdana,arial,sans-serif;font-size:16px;fill:#000000;}#mermaidSvgChart .error-icon{fill:#552222;}#mermaidSvgChart .error-text{fill:#552222;stroke:#552222;}#mermaidSvgChart .edge-thickness-normal{stroke-width:2px;}#mermaidSvgChart .edge-thickness-thick{stroke-width:3.5px;}#mermaidSvgChart .edge-pattern-solid{stroke-dasharray:0;}#mermaidSvgChart .edge-pattern-dashed{stroke-dasharray:3;}#mermaidSvgChart .edge-pattern-dotted{stroke-dasharray:2;}#mermaidSvgChart .marker{fill:#666;stroke:#666;}#mermaidSvgChart .marker.cross{stroke:#666;}#mermaidSvgChart svg{font-family:"trebuchet ms",verdana,arial,sans-serif;font-size:16px;}#mermaidSvgChart .entityBox{fill:#eee;stroke:#999;}#mermaidSvgChart .attributeBoxOdd{fill:#ffffff;stroke:#999;}#mermaidSvgChart .attributeBoxEven{fill:#f2f2f2;stroke:#999;}#mermaidSvgChart .relationshipLabelBox{fill:hsl(-160, 0%, 93.3333333333%);opacity:0.7;background-color:hsl(-160, 0%, 93.3333333333%);}#mermaidSvgChart .relationshipLabelBox rect{opacity:0.5;}#mermaidSvgChart .relationshipLine{stroke:#666;}#mermaidSvgChart .entityTitleText{text-anchor:middle;font-size:18px;fill:#000000;}#mermaidSvgChart :root{--mermaid-font-family:"trebuchet ms",verdana,arial,sans-serif;}</style><g></g><defs><marker orient="auto" markerHeight="18" markerWidth="18" refY="9" refX="0" id="ONLY_ONE_START"><path d="M9,0 L9,18 M15,0 L15,18" fill="none" stroke="gray"></path></marker></defs><defs><marker orient="auto" markerHeight="18" markerWidth="18" refY="9" refX="18" id="ONLY_ONE_END"><path d="M3,0 L3,18 M9,0 L9,18" fill="none" stroke="gray"></path></marker></defs><defs><marker orient="auto" markerHeight="18" markerWidth="30" refY="9" refX="0" id="ZERO_OR_ONE_START"><circle r="6" cy="9" cx="21" fill="white" stroke="gray"></circle><path d="M9,0 L9,18" fill="none" stroke="gray"></path></marker></defs><defs><marker orient="auto" markerHeight="18" markerWidth="30" refY="9" refX="30" id="ZERO_OR_ONE_END"><circle r="6" cy="9" cx="9" fill="white" stroke="gray"></circle><path d="M21,0 L21,18" fill="none" stroke="gray"></path></marker></defs><defs><marker orient="auto" markerHeight="36" markerWidth="45" refY="18" refX="18" id="ONE_OR_MORE_START"><path d="M0,18 Q 18,0 36,18 Q 18,36 0,18 M42,9 L42,27" fill="none" stroke="gray"></path></marker></defs><defs><marker orient="auto" markerHeight="36" markerWidth="45" refY="18" refX="27" id="ONE_OR_MORE_END"><path d="M3,9 L3,27 M9,18 Q27,0 45,18 Q27,36 9,18" fill="none" stroke="gray"></path></marker></defs><defs><marker orient="auto" markerHeight="36" markerWidth="57" refY="18" refX="18" id="ZERO_OR_MORE_START"><circle r="6" cy="18" cx="48" fill="white" stroke="gray"></circle><path d="M0,18 Q18,0 36,18 Q18,36 0,18" fill="none" stroke="gray"></path></marker></defs><defs><marker orient="auto" markerHeight="36" markerWidth="57" refY="18" refX="39" id="ZERO_OR_MORE_END"><circle r="6" cy="18" cx="9" fill="white" stroke="gray"></circle><path d="M21,18 Q39,0 57,18 Q39,36 21,18" fill="none" stroke="gray"></path></marker></defs><path style="stroke: gray; fill: none;" marker-start="url(#ZERO_OR_ONE_START)" marker-end="url(#ONE_OR_MORE_END)" d="M264.493,476L274.09,491.667C283.687,507.333,302.882,538.667,344.52,571.833C386.158,605,450.239,640,482.28,657.5L514.321,675" class="er relationshipLine"></path><path style="stroke: gray; fill: none;" marker-start="url(#ONLY_ONE_START)" marker-end="url(#ONE_OR_MORE_END)" d="M503.754,440.623L440.37,462.186C376.986,483.749,250.217,526.874,186.833,556.771C123.449,586.667,123.449,603.333,123.449,611.667L123.449,620" class="er relationshipLine"></path><path style="stroke: gray; fill: none;" marker-start="url(#ZERO_OR_ONE_START)" marker-end="url(#ONE_OR_MORE_END)" d="M634.5,520L637.337,528.333C640.174,536.667,645.848,553.333,642.29,579.167C638.732,605,625.943,640,619.549,657.5L613.154,675" class="er relationshipLine"></path><path style="stroke: gray; fill: none;" marker-start="url(#ONLY_ONE_START)" marker-end="url(#ONE_OR_MORE_END)" d="M350.863,198L353.43,206.333C355.996,214.667,361.13,231.333,386.612,255.676C412.094,280.019,457.924,312.038,480.839,328.047L503.754,344.056" class="er relationshipLine"></path><path style="stroke: gray; fill: none;" marker-start="url(#ONLY_ONE_START)" marker-end="url(#ONE_OR_MORE_END)" d="M259.42,198L253.425,206.333C247.43,214.667,235.44,231.333,229.444,255.333C223.449,279.333,223.449,310.667,223.449,326.333L223.449,342" class="er relationshipLine"></path><path style="stroke: gray; fill: none;" marker-start="url(#ONLY_ONE_START)" marker-end="url(#ONE_OR_MORE_END)" d="M596.711,176L596.711,188C596.711,200,596.711,224,596.711,244.333C596.711,264.667,596.711,281.333,596.711,289.667L596.711,298" class="er relationshipLine"></path><g transform="translate(502.90625,675 )" id="entity-dboDepartments-e5d46d94-f96f-5eed-b538-3b4597a307eb"><rect height="90" width="187.609375" y="0" x="0" class="er entityBox"></rect><text style="dominant-baseline: middle; text-anchor: middle; font-size: 12px;" transform="translate(93.8046875,12)" y="0" x="0" id="text-entity-dboDepartments-e5d46d94-f96f-5eed-b538-3b4597a307eb" class="er entityLabel">dbo.Departments</text><rect height="22" width="73.5" y="24" x="0" class="er attributeBoxOdd"></rect><text style="dominant-baseline: middle; font-size: 10.2px;" transform="translate(5,35)" y="0" x="0" id="text-entity-dboDepartments-e5d46d94-f96f-5eed-b538-3b4597a307eb-attr-1-type" class="er entityLabel">varchar(10)</text><rect height="22" width="90.5" y="24" x="73.5" class="er attributeBoxOdd"></rect><text style="dominant-baseline: middle; font-size: 10.2px;" transform="translate(78.5,35)" y="0" x="0" id="text-entity-dboDepartments-e5d46d94-f96f-5eed-b538-3b4597a307eb-attr-1-name" class="er entityLabel">DepartmentID</text><rect height="22" width="23.609375" y="24" x="164" class="er attributeBoxOdd"></rect><text style="dominant-baseline: middle; font-size: 10.2px;" transform="translate(169,35)" y="0" x="0" id="text-entity-dboDepartments-e5d46d94-f96f-5eed-b538-3b4597a307eb-attr-1-comment" class="er entityLabel">PK</text><rect height="22" width="73.5" y="46" x="0" class="er attributeBoxEven"></rect><text style="dominant-baseline: middle; font-size: 10.2px;" transform="translate(5,57)" y="0" x="0" id="text-entity-dboDepartments-e5d46d94-f96f-5eed-b538-3b4597a307eb-attr-2-type" class="er entityLabel">nvarchar(100)</text><rect height="22" width="90.5" y="46" x="73.5" class="er attributeBoxEven"></rect><text style="dominant-baseline: middle; font-size: 10.2px;" transform="translate(78.5,57)" y="0" x="0" id="text-entity-dboDepartments-e5d46d94-f96f-5eed-b538-3b4597a307eb-attr-2-name" class="er entityLabel">DepartmentName</text><rect height="22" width="23.609375" y="46" x="164" class="er attributeBoxEven"></rect><text style="dominant-baseline: middle; font-size: 10.2px;" transform="translate(169,57)" y="0" x="0" id="text-entity-dboDepartments-e5d46d94-f96f-5eed-b538-3b4597a307eb-attr-2-comment" class="er entityLabel"></text><rect height="22" width="73.5" y="68" x="0" class="er attributeBoxOdd"></rect><text style="dominant-baseline: middle; font-size: 10.2px;" transform="translate(5,79)" y="0" x="0" id="text-entity-dboDepartments-e5d46d94-f96f-5eed-b538-3b4597a307eb-attr-3-type" class="er entityLabel">int</text><rect height="22" width="90.5" y="68" x="73.5" class="er attributeBoxOdd"></rect><text style="dominant-baseline: middle; font-size: 10.2px;" transform="translate(78.5,79)" y="0" x="0" id="text-entity-dboDepartments-e5d46d94-f96f-5eed-b538-3b4597a307eb-attr-3-name" class="er entityLabel">Floor</text><rect height="22" width="23.609375" y="68" x="164" class="er attributeBoxOdd"></rect><text style="dominant-baseline: middle; font-size: 10.2px;" transform="translate(169,79)" y="0" x="0" id="text-entity-dboDepartments-e5d46d94-f96f-5eed-b538-3b4597a307eb-attr-3-comment" class="er entityLabel"></text></g><g transform="translate(20,620 )" id="entity-dboPatients-7c5d4306-3e12-523a-ad37-da503dea9cf7"><rect height="200" width="206.8984375" y="0" x="0" class="er entityBox"></rect><text style="dominant-baseline: middle; text-anchor: middle; font-size: 12px;" transform="translate(103.44921875,12)" y="0" x="0" id="text-entity-dboPatients-7c5d4306-3e12-523a-ad37-da503dea9cf7" class="er entityLabel">dbo.Patients</text><rect height="22" width="73.5" y="24" x="0" class="er attributeBoxOdd"></rect><text style="dominant-baseline: middle; font-size: 10.2px;" transform="translate(5,35)" y="0" x="0" id="text-entity-dboPatients-7c5d4306-3e12-523a-ad37-da503dea9cf7-attr-1-type" class="er entityLabel">varchar(20)</text><rect height="22" width="109.7890625" y="24" x="73.5" class="er attributeBoxOdd"></rect><text style="dominant-baseline: middle; font-size: 10.2px;" transform="translate(78.5,35)" y="0" x="0" id="text-entity-dboPatients-7c5d4306-3e12-523a-ad37-da503dea9cf7-attr-1-name" class="er entityLabel">PatientID</text><rect height="22" width="23.609375" y="24" x="183.2890625" class="er attributeBoxOdd"></rect><text style="dominant-baseline: middle; font-size: 10.2px;" transform="translate(188.2890625,35)" y="0" x="0" id="text-entity-dboPatients-7c5d4306-3e12-523a-ad37-da503dea9cf7-attr-1-comment" class="er entityLabel">PK</text><rect height="22" width="73.5" y="46" x="0" class="er attributeBoxEven"></rect><text style="dominant-baseline: middle; font-size: 10.2px;" transform="translate(5,57)" y="0" x="0" id="text-entity-dboPatients-7c5d4306-3e12-523a-ad37-da503dea9cf7-attr-2-type" class="er entityLabel">nvarchar(100)</text><rect height="22" width="109.7890625" y="46" x="73.5" class="er attributeBoxEven"></rect><text style="dominant-baseline: middle; font-size: 10.2px;" transform="translate(78.5,57)" y="0" x="0" id="text-entity-dboPatients-7c5d4306-3e12-523a-ad37-da503dea9cf7-attr-2-name" class="er entityLabel">FullName</text><rect height="22" width="23.609375" y="46" x="183.2890625" class="er attributeBoxEven"></rect><text style="dominant-baseline: middle; font-size: 10.2px;" transform="translate(188.2890625,57)" y="0" x="0" id="text-entity-dboPatients-7c5d4306-3e12-523a-ad37-da503dea9cf7-attr-2-comment" class="er entityLabel"></text><rect height="22" width="73.5" y="68" x="0" class="er attributeBoxOdd"></rect><text style="dominant-baseline: middle; font-size: 10.2px;" transform="translate(5,79)" y="0" x="0" id="text-entity-dboPatients-7c5d4306-3e12-523a-ad37-da503dea9cf7-attr-3-type" class="er entityLabel">nvarchar(10)</text><rect height="22" width="109.7890625" y="68" x="73.5" class="er attributeBoxOdd"></rect><text style="dominant-baseline: middle; font-size: 10.2px;" transform="translate(78.5,79)" y="0" x="0" id="text-entity-dboPatients-7c5d4306-3e12-523a-ad37-da503dea9cf7-attr-3-name" class="er entityLabel">Gender</text><rect height="22" width="23.609375" y="68" x="183.2890625" class="er attributeBoxOdd"></rect><text style="dominant-baseline: middle; font-size: 10.2px;" transform="translate(188.2890625,79)" y="0" x="0" id="text-entity-dboPatients-7c5d4306-3e12-523a-ad37-da503dea9cf7-attr-3-comment" class="er entityLabel"></text><rect height="22" width="73.5" y="90" x="0" class="er attributeBoxEven"></rect><text style="dominant-baseline: middle; font-size: 10.2px;" transform="translate(5,101)" y="0" x="0" id="text-entity-dboPatients-7c5d4306-3e12-523a-ad37-da503dea9cf7-attr-4-type" class="er entityLabel">date</text><rect height="22" width="109.7890625" y="90" x="73.5" class="er attributeBoxEven"></rect><text style="dominant-baseline: middle; font-size: 10.2px;" transform="translate(78.5,101)" y="0" x="0" id="text-entity-dboPatients-7c5d4306-3e12-523a-ad37-da503dea9cf7-attr-4-name" class="er entityLabel">DateOfBirth</text><rect height="22" width="23.609375" y="90" x="183.2890625" class="er attributeBoxEven"></rect><text style="dominant-baseline: middle; font-size: 10.2px;" transform="translate(188.2890625,101)" y="0" x="0" id="text-entity-dboPatients-7c5d4306-3e12-523a-ad37-da503dea9cf7-attr-4-comment" class="er entityLabel"></text><rect height="22" width="73.5" y="112" x="0" class="er attributeBoxOdd"></rect><text style="dominant-baseline: middle; font-size: 10.2px;" transform="translate(5,123)" y="0" x="0" id="text-entity-dboPatients-7c5d4306-3e12-523a-ad37-da503dea9cf7-attr-5-type" class="er entityLabel">nvarchar(20)</text><rect height="22" width="109.7890625" y="112" x="73.5" class="er attributeBoxOdd"></rect><text style="dominant-baseline: middle; font-size: 10.2px;" transform="translate(78.5,123)" y="0" x="0" id="text-entity-dboPatients-7c5d4306-3e12-523a-ad37-da503dea9cf7-attr-5-name" class="er entityLabel">AgeGroup</text><rect height="22" width="23.609375" y="112" x="183.2890625" class="er attributeBoxOdd"></rect><text style="dominant-baseline: middle; font-size: 10.2px;" transform="translate(188.2890625,123)" y="0" x="0" id="text-entity-dboPatients-7c5d4306-3e12-523a-ad37-da503dea9cf7-attr-5-comment" class="er entityLabel"></text><rect height="22" width="73.5" y="134" x="0" class="er attributeBoxEven"></rect><text style="dominant-baseline: middle; font-size: 10.2px;" transform="translate(5,145)" y="0" x="0" id="text-entity-dboPatients-7c5d4306-3e12-523a-ad37-da503dea9cf7-attr-6-type" class="er entityLabel">nvarchar(50)</text><rect height="22" width="109.7890625" y="134" x="73.5" class="er attributeBoxEven"></rect><text style="dominant-baseline: middle; font-size: 10.2px;" transform="translate(78.5,145)" y="0" x="0" id="text-entity-dboPatients-7c5d4306-3e12-523a-ad37-da503dea9cf7-attr-6-name" class="er entityLabel">InsuranceType</text><rect height="22" width="23.609375" y="134" x="183.2890625" class="er attributeBoxEven"></rect><text style="dominant-baseline: middle; font-size: 10.2px;" transform="translate(188.2890625,145)" y="0" x="0" id="text-entity-dboPatients-7c5d4306-3e12-523a-ad37-da503dea9cf7-attr-6-comment" class="er entityLabel"></text><rect height="22" width="73.5" y="156" x="0" class="er attributeBoxOdd"></rect><text style="dominant-baseline: middle; font-size: 10.2px;" transform="translate(5,167)" y="0" x="0" id="text-entity-dboPatients-7c5d4306-3e12-523a-ad37-da503dea9cf7-attr-7-type" class="er entityLabel">nvarchar(500)</text><rect height="22" width="109.7890625" y="156" x="73.5" class="er attributeBoxOdd"></rect><text style="dominant-baseline: middle; font-size: 10.2px;" transform="translate(78.5,167)" y="0" x="0" id="text-entity-dboPatients-7c5d4306-3e12-523a-ad37-da503dea9cf7-attr-7-name" class="er entityLabel">PreExistingConditions</text><rect height="22" width="23.609375" y="156" x="183.2890625" class="er attributeBoxOdd"></rect><text style="dominant-baseline: middle; font-size: 10.2px;" transform="translate(188.2890625,167)" y="0" x="0" id="text-entity-dboPatients-7c5d4306-3e12-523a-ad37-da503dea9cf7-attr-7-comment" class="er entityLabel"></text><rect height="22" width="73.5" y="178" x="0" class="er attributeBoxEven"></rect><text style="dominant-baseline: middle; font-size: 10.2px;" transform="translate(5,189)" y="0" x="0" id="text-entity-dboPatients-7c5d4306-3e12-523a-ad37-da503dea9cf7-attr-8-type" class="er entityLabel">nvarchar(10)</text><rect height="22" width="109.7890625" y="178" x="73.5" class="er attributeBoxEven"></rect><text style="dominant-baseline: middle; font-size: 10.2px;" transform="translate(78.5,189)" y="0" x="0" id="text-entity-dboPatients-7c5d4306-3e12-523a-ad37-da503dea9cf7-attr-8-name" class="er entityLabel">ZipCode</text><rect height="22" width="23.609375" y="178" x="183.2890625" class="er attributeBoxEven"></rect><text style="dominant-baseline: middle; font-size: 10.2px;" transform="translate(188.2890625,189)" y="0" x="0" id="text-entity-dboPatients-7c5d4306-3e12-523a-ad37-da503dea9cf7-attr-8-comment" class="er entityLabel"></text></g><g transform="translate(130.77734375,342 )" id="entity-dboStaff-556a17c4-9497-5bb1-a2a6-c782609e99a4"><rect height="134" width="185.34375" y="0" x="0" class="er entityBox"></rect><text style="dominant-baseline: middle; text-anchor: middle; font-size: 12px;" transform="translate(92.671875,12)" y="0" x="0" id="text-entity-dboStaff-556a17c4-9497-5bb1-a2a6-c782609e99a4" class="er entityLabel">dbo.Staff</text><rect height="22" width="73.5" y="24" x="0" class="er attributeBoxOdd"></rect><text style="dominant-baseline: middle; font-size: 10.2px;" transform="translate(5,35)" y="0" x="0" id="text-entity-dboStaff-556a17c4-9497-5bb1-a2a6-c782609e99a4-attr-1-type" class="er entityLabel">varchar(20)</text><rect height="22" width="88.234375" y="24" x="73.5" class="er attributeBoxOdd"></rect><text style="dominant-baseline: middle; font-size: 10.2px;" transform="translate(78.5,35)" y="0" x="0" id="text-entity-dboStaff-556a17c4-9497-5bb1-a2a6-c782609e99a4-attr-1-name" class="er entityLabel">StaffID</text><rect height="22" width="23.609375" y="24" x="161.734375" class="er attributeBoxOdd"></rect><text style="dominant-baseline: middle; font-size: 10.2px;" transform="translate(166.734375,35)" y="0" x="0" id="text-entity-dboStaff-556a17c4-9497-5bb1-a2a6-c782609e99a4-attr-1-comment" class="er entityLabel">PK</text><rect height="22" width="73.5" y="46" x="0" class="er attributeBoxEven"></rect><text style="dominant-baseline: middle; font-size: 10.2px;" transform="translate(5,57)" y="0" x="0" id="text-entity-dboStaff-556a17c4-9497-5bb1-a2a6-c782609e99a4-attr-2-type" class="er entityLabel">nvarchar(100)</text><rect height="22" width="88.234375" y="46" x="73.5" class="er attributeBoxEven"></rect><text style="dominant-baseline: middle; font-size: 10.2px;" transform="translate(78.5,57)" y="0" x="0" id="text-entity-dboStaff-556a17c4-9497-5bb1-a2a6-c782609e99a4-attr-2-name" class="er entityLabel">FullName</text><rect height="22" width="23.609375" y="46" x="161.734375" class="er attributeBoxEven"></rect><text style="dominant-baseline: middle; font-size: 10.2px;" transform="translate(166.734375,57)" y="0" x="0" id="text-entity-dboStaff-556a17c4-9497-5bb1-a2a6-c782609e99a4-attr-2-comment" class="er entityLabel"></text><rect height="22" width="73.5" y="68" x="0" class="er attributeBoxOdd"></rect><text style="dominant-baseline: middle; font-size: 10.2px;" transform="translate(5,79)" y="0" x="0" id="text-entity-dboStaff-556a17c4-9497-5bb1-a2a6-c782609e99a4-attr-3-type" class="er entityLabel">nvarchar(50)</text><rect height="22" width="88.234375" y="68" x="73.5" class="er attributeBoxOdd"></rect><text style="dominant-baseline: middle; font-size: 10.2px;" transform="translate(78.5,79)" y="0" x="0" id="text-entity-dboStaff-556a17c4-9497-5bb1-a2a6-c782609e99a4-attr-3-name" class="er entityLabel">Role</text><rect height="22" width="23.609375" y="68" x="161.734375" class="er attributeBoxOdd"></rect><text style="dominant-baseline: middle; font-size: 10.2px;" transform="translate(166.734375,79)" y="0" x="0" id="text-entity-dboStaff-556a17c4-9497-5bb1-a2a6-c782609e99a4-attr-3-comment" class="er entityLabel"></text><rect height="22" width="73.5" y="90" x="0" class="er attributeBoxEven"></rect><text style="dominant-baseline: middle; font-size: 10.2px;" transform="translate(5,101)" y="0" x="0" id="text-entity-dboStaff-556a17c4-9497-5bb1-a2a6-c782609e99a4-attr-4-type" class="er entityLabel">varchar(10)</text><rect height="22" width="88.234375" y="90" x="73.5" class="er attributeBoxEven"></rect><text style="dominant-baseline: middle; font-size: 10.2px;" transform="translate(78.5,101)" y="0" x="0" id="text-entity-dboStaff-556a17c4-9497-5bb1-a2a6-c782609e99a4-attr-4-name" class="er entityLabel">DepartmentID</text><rect height="22" width="23.609375" y="90" x="161.734375" class="er attributeBoxEven"></rect><text style="dominant-baseline: middle; font-size: 10.2px;" transform="translate(166.734375,101)" y="0" x="0" id="text-entity-dboStaff-556a17c4-9497-5bb1-a2a6-c782609e99a4-attr-4-comment" class="er entityLabel">FK</text><rect height="22" width="73.5" y="112" x="0" class="er attributeBoxOdd"></rect><text style="dominant-baseline: middle; font-size: 10.2px;" transform="translate(5,123)" y="0" x="0" id="text-entity-dboStaff-556a17c4-9497-5bb1-a2a6-c782609e99a4-attr-5-type" class="er entityLabel">date</text><rect height="22" width="88.234375" y="112" x="73.5" class="er attributeBoxOdd"></rect><text style="dominant-baseline: middle; font-size: 10.2px;" transform="translate(78.5,123)" y="0" x="0" id="text-entity-dboStaff-556a17c4-9497-5bb1-a2a6-c782609e99a4-attr-5-name" class="er entityLabel">EmploymentDate</text><rect height="22" width="23.609375" y="112" x="161.734375" class="er attributeBoxOdd"></rect><text style="dominant-baseline: middle; font-size: 10.2px;" transform="translate(166.734375,123)" y="0" x="0" id="text-entity-dboStaff-556a17c4-9497-5bb1-a2a6-c782609e99a4-attr-5-comment" class="er entityLabel"></text></g><g transform="translate(503.75390625,298 )" id="entity-dboVisits-cc83c2ea-c821-5f47-9f04-3f5139f88f2a"><rect height="222" width="185.9140625" y="0" x="0" class="er entityBox"></rect><text style="dominant-baseline: middle; text-anchor: middle; font-size: 12px;" transform="translate(92.95703125,12)" y="0" x="0" id="text-entity-dboVisits-cc83c2ea-c821-5f47-9f04-3f5139f88f2a" class="er entityLabel">dbo.Visits</text><rect height="22" width="73.5" y="24" x="0" class="er attributeBoxOdd"></rect><text style="dominant-baseline: middle; font-size: 10.2px;" transform="translate(5,35)" y="0" x="0" id="text-entity-dboVisits-cc83c2ea-c821-5f47-9f04-3f5139f88f2a-attr-1-type" class="er entityLabel">varchar(20)</text><rect height="22" width="88.8046875" y="24" x="73.5" class="er attributeBoxOdd"></rect><text style="dominant-baseline: middle; font-size: 10.2px;" transform="translate(78.5,35)" y="0" x="0" id="text-entity-dboVisits-cc83c2ea-c821-5f47-9f04-3f5139f88f2a-attr-1-name" class="er entityLabel">VisitID</text><rect height="22" width="23.609375" y="24" x="162.3046875" class="er attributeBoxOdd"></rect><text style="dominant-baseline: middle; font-size: 10.2px;" transform="translate(167.3046875,35)" y="0" x="0" id="text-entity-dboVisits-cc83c2ea-c821-5f47-9f04-3f5139f88f2a-attr-1-comment" class="er entityLabel">PK</text><rect height="22" width="73.5" y="46" x="0" class="er attributeBoxEven"></rect><text style="dominant-baseline: middle; font-size: 10.2px;" transform="translate(5,57)" y="0" x="0" id="text-entity-dboVisits-cc83c2ea-c821-5f47-9f04-3f5139f88f2a-attr-2-type" class="er entityLabel">varchar(20)</text><rect height="22" width="88.8046875" y="46" x="73.5" class="er attributeBoxEven"></rect><text style="dominant-baseline: middle; font-size: 10.2px;" transform="translate(78.5,57)" y="0" x="0" id="text-entity-dboVisits-cc83c2ea-c821-5f47-9f04-3f5139f88f2a-attr-2-name" class="er entityLabel">PatientID</text><rect height="22" width="23.609375" y="46" x="162.3046875" class="er attributeBoxEven"></rect><text style="dominant-baseline: middle; font-size: 10.2px;" transform="translate(167.3046875,57)" y="0" x="0" id="text-entity-dboVisits-cc83c2ea-c821-5f47-9f04-3f5139f88f2a-attr-2-comment" class="er entityLabel">FK</text><rect height="22" width="73.5" y="68" x="0" class="er attributeBoxOdd"></rect><text style="dominant-baseline: middle; font-size: 10.2px;" transform="translate(5,79)" y="0" x="0" id="text-entity-dboVisits-cc83c2ea-c821-5f47-9f04-3f5139f88f2a-attr-3-type" class="er entityLabel">datetime</text><rect height="22" width="88.8046875" y="68" x="73.5" class="er attributeBoxOdd"></rect><text style="dominant-baseline: middle; font-size: 10.2px;" transform="translate(78.5,79)" y="0" x="0" id="text-entity-dboVisits-cc83c2ea-c821-5f47-9f04-3f5139f88f2a-attr-3-name" class="er entityLabel">AdmissionDate</text><rect height="22" width="23.609375" y="68" x="162.3046875" class="er attributeBoxOdd"></rect><text style="dominant-baseline: middle; font-size: 10.2px;" transform="translate(167.3046875,79)" y="0" x="0" id="text-entity-dboVisits-cc83c2ea-c821-5f47-9f04-3f5139f88f2a-attr-3-comment" class="er entityLabel"></text><rect height="22" width="73.5" y="90" x="0" class="er attributeBoxEven"></rect><text style="dominant-baseline: middle; font-size: 10.2px;" transform="translate(5,101)" y="0" x="0" id="text-entity-dboVisits-cc83c2ea-c821-5f47-9f04-3f5139f88f2a-attr-4-type" class="er entityLabel">datetime</text><rect height="22" width="88.8046875" y="90" x="73.5" class="er attributeBoxEven"></rect><text style="dominant-baseline: middle; font-size: 10.2px;" transform="translate(78.5,101)" y="0" x="0" id="text-entity-dboVisits-cc83c2ea-c821-5f47-9f04-3f5139f88f2a-attr-4-name" class="er entityLabel">DischargeDate</text><rect height="22" width="23.609375" y="90" x="162.3046875" class="er attributeBoxEven"></rect><text style="dominant-baseline: middle; font-size: 10.2px;" transform="translate(167.3046875,101)" y="0" x="0" id="text-entity-dboVisits-cc83c2ea-c821-5f47-9f04-3f5139f88f2a-attr-4-comment" class="er entityLabel"></text><rect height="22" width="73.5" y="112" x="0" class="er attributeBoxOdd"></rect><text style="dominant-baseline: middle; font-size: 10.2px;" transform="translate(5,123)" y="0" x="0" id="text-entity-dboVisits-cc83c2ea-c821-5f47-9f04-3f5139f88f2a-attr-5-type" class="er entityLabel">int</text><rect height="22" width="88.8046875" y="112" x="73.5" class="er attributeBoxOdd"></rect><text style="dominant-baseline: middle; font-size: 10.2px;" transform="translate(78.5,123)" y="0" x="0" id="text-entity-dboVisits-cc83c2ea-c821-5f47-9f04-3f5139f88f2a-attr-5-name" class="er entityLabel">LengthOfStay</text><rect height="22" width="23.609375" y="112" x="162.3046875" class="er attributeBoxOdd"></rect><text style="dominant-baseline: middle; font-size: 10.2px;" transform="translate(167.3046875,123)" y="0" x="0" id="text-entity-dboVisits-cc83c2ea-c821-5f47-9f04-3f5139f88f2a-attr-5-comment" class="er entityLabel"></text><rect height="22" width="73.5" y="134" x="0" class="er attributeBoxEven"></rect><text style="dominant-baseline: middle; font-size: 10.2px;" transform="translate(5,145)" y="0" x="0" id="text-entity-dboVisits-cc83c2ea-c821-5f47-9f04-3f5139f88f2a-attr-6-type" class="er entityLabel">varchar(10)</text><rect height="22" width="88.8046875" y="134" x="73.5" class="er attributeBoxEven"></rect><text style="dominant-baseline: middle; font-size: 10.2px;" transform="translate(78.5,145)" y="0" x="0" id="text-entity-dboVisits-cc83c2ea-c821-5f47-9f04-3f5139f88f2a-attr-6-name" class="er entityLabel">DepartmentID</text><rect height="22" width="23.609375" y="134" x="162.3046875" class="er attributeBoxEven"></rect><text style="dominant-baseline: middle; font-size: 10.2px;" transform="translate(167.3046875,145)" y="0" x="0" id="text-entity-dboVisits-cc83c2ea-c821-5f47-9f04-3f5139f88f2a-attr-6-comment" class="er entityLabel">FK</text><rect height="22" width="73.5" y="156" x="0" class="er attributeBoxOdd"></rect><text style="dominant-baseline: middle; font-size: 10.2px;" transform="translate(5,167)" y="0" x="0" id="text-entity-dboVisits-cc83c2ea-c821-5f47-9f04-3f5139f88f2a-attr-7-type" class="er entityLabel">nvarchar(100)</text><rect height="22" width="88.8046875" y="156" x="73.5" class="er attributeBoxOdd"></rect><text style="dominant-baseline: middle; font-size: 10.2px;" transform="translate(78.5,167)" y="0" x="0" id="text-entity-dboVisits-cc83c2ea-c821-5f47-9f04-3f5139f88f2a-attr-7-name" class="er entityLabel">VisitReason</text><rect height="22" width="23.609375" y="156" x="162.3046875" class="er attributeBoxOdd"></rect><text style="dominant-baseline: middle; font-size: 10.2px;" transform="translate(167.3046875,167)" y="0" x="0" id="text-entity-dboVisits-cc83c2ea-c821-5f47-9f04-3f5139f88f2a-attr-7-comment" class="er entityLabel"></text><rect height="22" width="73.5" y="178" x="0" class="er attributeBoxEven"></rect><text style="dominant-baseline: middle; font-size: 10.2px;" transform="translate(5,189)" y="0" x="0" id="text-entity-dboVisits-cc83c2ea-c821-5f47-9f04-3f5139f88f2a-attr-8-type" class="er entityLabel">nvarchar(50)</text><rect height="22" width="88.8046875" y="178" x="73.5" class="er attributeBoxEven"></rect><text style="dominant-baseline: middle; font-size: 10.2px;" transform="translate(78.5,189)" y="0" x="0" id="text-entity-dboVisits-cc83c2ea-c821-5f47-9f04-3f5139f88f2a-attr-8-name" class="er entityLabel">Outcome</text><rect height="22" width="23.609375" y="178" x="162.3046875" class="er attributeBoxEven"></rect><text style="dominant-baseline: middle; font-size: 10.2px;" transform="translate(167.3046875,189)" y="0" x="0" id="text-entity-dboVisits-cc83c2ea-c821-5f47-9f04-3f5139f88f2a-attr-8-comment" class="er entityLabel"></text><rect height="22" width="73.5" y="200" x="0" class="er attributeBoxOdd"></rect><text style="dominant-baseline: middle; font-size: 10.2px;" transform="translate(5,211)" y="0" x="0" id="text-entity-dboVisits-cc83c2ea-c821-5f47-9f04-3f5139f88f2a-attr-9-type" class="er entityLabel">bit</text><rect height="22" width="88.8046875" y="200" x="73.5" class="er attributeBoxOdd"></rect><text style="dominant-baseline: middle; font-size: 10.2px;" transform="translate(78.5,211)" y="0" x="0" id="text-entity-dboVisits-cc83c2ea-c821-5f47-9f04-3f5139f88f2a-attr-9-name" class="er entityLabel">ReadmissionFlag</text><rect height="22" width="23.609375" y="200" x="162.3046875" class="er attributeBoxOdd"></rect><text style="dominant-baseline: middle; font-size: 10.2px;" transform="translate(167.3046875,211)" y="0" x="0" id="text-entity-dboVisits-cc83c2ea-c821-5f47-9f04-3f5139f88f2a-attr-9-comment" class="er entityLabel"></text></g><g transform="translate(237.48046875,20 )" id="entity-dboTreatments-31546d6b-3366-56de-9e28-81dc456fbf49"><rect height="178" width="171.9375" y="0" x="0" class="er entityBox"></rect><text style="dominant-baseline: middle; text-anchor: middle; font-size: 12px;" transform="translate(85.96875,12)" y="0" x="0" id="text-entity-dboTreatments-31546d6b-3366-56de-9e28-81dc456fbf49" class="er entityLabel">dbo.Treatments</text><rect height="22" width="67.828125" y="24" x="0" class="er attributeBoxOdd"></rect><text style="dominant-baseline: middle; font-size: 10.2px;" transform="translate(5,35)" y="0" x="0" id="text-entity-dboTreatments-31546d6b-3366-56de-9e28-81dc456fbf49-attr-1-type" class="er entityLabel">varchar(10)</text><rect height="22" width="80.5" y="24" x="67.828125" class="er attributeBoxOdd"></rect><text style="dominant-baseline: middle; font-size: 10.2px;" transform="translate(72.828125,35)" y="0" x="0" id="text-entity-dboTreatments-31546d6b-3366-56de-9e28-81dc456fbf49-attr-1-name" class="er entityLabel">TreatmentID</text><rect height="22" width="23.609375" y="24" x="148.328125" class="er attributeBoxOdd"></rect><text style="dominant-baseline: middle; font-size: 10.2px;" transform="translate(153.328125,35)" y="0" x="0" id="text-entity-dboTreatments-31546d6b-3366-56de-9e28-81dc456fbf49-attr-1-comment" class="er entityLabel">PK</text><rect height="22" width="67.828125" y="46" x="0" class="er attributeBoxEven"></rect><text style="dominant-baseline: middle; font-size: 10.2px;" transform="translate(5,57)" y="0" x="0" id="text-entity-dboTreatments-31546d6b-3366-56de-9e28-81dc456fbf49-attr-2-type" class="er entityLabel">varchar(20)</text><rect height="22" width="80.5" y="46" x="67.828125" class="er attributeBoxEven"></rect><text style="dominant-baseline: middle; font-size: 10.2px;" transform="translate(72.828125,57)" y="0" x="0" id="text-entity-dboTreatments-31546d6b-3366-56de-9e28-81dc456fbf49-attr-2-name" class="er entityLabel">VisitID</text><rect height="22" width="23.609375" y="46" x="148.328125" class="er attributeBoxEven"></rect><text style="dominant-baseline: middle; font-size: 10.2px;" transform="translate(153.328125,57)" y="0" x="0" id="text-entity-dboTreatments-31546d6b-3366-56de-9e28-81dc456fbf49-attr-2-comment" class="er entityLabel">FK</text><rect height="22" width="67.828125" y="68" x="0" class="er attributeBoxOdd"></rect><text style="dominant-baseline: middle; font-size: 10.2px;" transform="translate(5,79)" y="0" x="0" id="text-entity-dboTreatments-31546d6b-3366-56de-9e28-81dc456fbf49-attr-3-type" class="er entityLabel">nvarchar(10)</text><rect height="22" width="80.5" y="68" x="67.828125" class="er attributeBoxOdd"></rect><text style="dominant-baseline: middle; font-size: 10.2px;" transform="translate(72.828125,79)" y="0" x="0" id="text-entity-dboTreatments-31546d6b-3366-56de-9e28-81dc456fbf49-attr-3-name" class="er entityLabel">TreatmentCode</text><rect height="22" width="23.609375" y="68" x="148.328125" class="er attributeBoxOdd"></rect><text style="dominant-baseline: middle; font-size: 10.2px;" transform="translate(153.328125,79)" y="0" x="0" id="text-entity-dboTreatments-31546d6b-3366-56de-9e28-81dc456fbf49-attr-3-comment" class="er entityLabel"></text><rect height="22" width="67.828125" y="90" x="0" class="er attributeBoxEven"></rect><text style="dominant-baseline: middle; font-size: 10.2px;" transform="translate(5,101)" y="0" x="0" id="text-entity-dboTreatments-31546d6b-3366-56de-9e28-81dc456fbf49-attr-4-type" class="er entityLabel">nvarchar(20)</text><rect height="22" width="80.5" y="90" x="67.828125" class="er attributeBoxEven"></rect><text style="dominant-baseline: middle; font-size: 10.2px;" transform="translate(72.828125,101)" y="0" x="0" id="text-entity-dboTreatments-31546d6b-3366-56de-9e28-81dc456fbf49-attr-4-name" class="er entityLabel">Medication</text><rect height="22" width="23.609375" y="90" x="148.328125" class="er attributeBoxEven"></rect><text style="dominant-baseline: middle; font-size: 10.2px;" transform="translate(153.328125,101)" y="0" x="0" id="text-entity-dboTreatments-31546d6b-3366-56de-9e28-81dc456fbf49-attr-4-comment" class="er entityLabel"></text><rect height="22" width="67.828125" y="112" x="0" class="er attributeBoxOdd"></rect><text style="dominant-baseline: middle; font-size: 10.2px;" transform="translate(5,123)" y="0" x="0" id="text-entity-dboTreatments-31546d6b-3366-56de-9e28-81dc456fbf49-attr-5-type" class="er entityLabel">decimal</text><rect height="22" width="80.5" y="112" x="67.828125" class="er attributeBoxOdd"></rect><text style="dominant-baseline: middle; font-size: 10.2px;" transform="translate(72.828125,123)" y="0" x="0" id="text-entity-dboTreatments-31546d6b-3366-56de-9e28-81dc456fbf49-attr-5-name" class="er entityLabel">Cost</text><rect height="22" width="23.609375" y="112" x="148.328125" class="er attributeBoxOdd"></rect><text style="dominant-baseline: middle; font-size: 10.2px;" transform="translate(153.328125,123)" y="0" x="0" id="text-entity-dboTreatments-31546d6b-3366-56de-9e28-81dc456fbf49-attr-5-comment" class="er entityLabel"></text><rect height="22" width="67.828125" y="134" x="0" class="er attributeBoxEven"></rect><text style="dominant-baseline: middle; font-size: 10.2px;" transform="translate(5,145)" y="0" x="0" id="text-entity-dboTreatments-31546d6b-3366-56de-9e28-81dc456fbf49-attr-6-type" class="er entityLabel">varchar(20)</text><rect height="22" width="80.5" y="134" x="67.828125" class="er attributeBoxEven"></rect><text style="dominant-baseline: middle; font-size: 10.2px;" transform="translate(72.828125,145)" y="0" x="0" id="text-entity-dboTreatments-31546d6b-3366-56de-9e28-81dc456fbf49-attr-6-name" class="er entityLabel">StaffID</text><rect height="22" width="23.609375" y="134" x="148.328125" class="er attributeBoxEven"></rect><text style="dominant-baseline: middle; font-size: 10.2px;" transform="translate(153.328125,145)" y="0" x="0" id="text-entity-dboTreatments-31546d6b-3366-56de-9e28-81dc456fbf49-attr-6-comment" class="er entityLabel">FK</text><rect height="22" width="67.828125" y="156" x="0" class="er attributeBoxOdd"></rect><text style="dominant-baseline: middle; font-size: 10.2px;" transform="translate(5,167)" y="0" x="0" id="text-entity-dboTreatments-31546d6b-3366-56de-9e28-81dc456fbf49-attr-7-type" class="er entityLabel">date</text><rect height="22" width="80.5" y="156" x="67.828125" class="er attributeBoxOdd"></rect><text style="dominant-baseline: middle; font-size: 10.2px;" transform="translate(72.828125,167)" y="0" x="0" id="text-entity-dboTreatments-31546d6b-3366-56de-9e28-81dc456fbf49-attr-7-name" class="er entityLabel">TreatmentDate</text><rect height="22" width="23.609375" y="156" x="148.328125" class="er attributeBoxOdd"></rect><text style="dominant-baseline: middle; font-size: 10.2px;" transform="translate(153.328125,167)" y="0" x="0" id="text-entity-dboTreatments-31546d6b-3366-56de-9e28-81dc456fbf49-attr-7-comment" class="er entityLabel"></text></g><g transform="translate(509.41796875,42 )" id="entity-dboSurveys-49d197dc-0816-5cb6-8e4a-ce7590474064"><rect height="134" width="174.5859375" y="0" x="0" class="er entityBox"></rect><text style="dominant-baseline: middle; text-anchor: middle; font-size: 12px;" transform="translate(87.29296875,12)" y="0" x="0" id="text-entity-dboSurveys-49d197dc-0816-5cb6-8e4a-ce7590474064" class="er entityLabel">dbo.Surveys</text><rect height="22" width="73.5" y="24" x="0" class="er attributeBoxOdd"></rect><text style="dominant-baseline: middle; font-size: 10.2px;" transform="translate(5,35)" y="0" x="0" id="text-entity-dboSurveys-49d197dc-0816-5cb6-8e4a-ce7590474064-attr-1-type" class="er entityLabel">varchar(10)</text><rect height="22" width="77.4765625" y="24" x="73.5" class="er attributeBoxOdd"></rect><text style="dominant-baseline: middle; font-size: 10.2px;" transform="translate(78.5,35)" y="0" x="0" id="text-entity-dboSurveys-49d197dc-0816-5cb6-8e4a-ce7590474064-attr-1-name" class="er entityLabel">SurveyID</text><rect height="22" width="23.609375" y="24" x="150.9765625" class="er attributeBoxOdd"></rect><text style="dominant-baseline: middle; font-size: 10.2px;" transform="translate(155.9765625,35)" y="0" x="0" id="text-entity-dboSurveys-49d197dc-0816-5cb6-8e4a-ce7590474064-attr-1-comment" class="er entityLabel">PK</text><rect height="22" width="73.5" y="46" x="0" class="er attributeBoxEven"></rect><text style="dominant-baseline: middle; font-size: 10.2px;" transform="translate(5,57)" y="0" x="0" id="text-entity-dboSurveys-49d197dc-0816-5cb6-8e4a-ce7590474064-attr-2-type" class="er entityLabel">varchar(20)</text><rect height="22" width="77.4765625" y="46" x="73.5" class="er attributeBoxEven"></rect><text style="dominant-baseline: middle; font-size: 10.2px;" transform="translate(78.5,57)" y="0" x="0" id="text-entity-dboSurveys-49d197dc-0816-5cb6-8e4a-ce7590474064-attr-2-name" class="er entityLabel">VisitID</text><rect height="22" width="23.609375" y="46" x="150.9765625" class="er attributeBoxEven"></rect><text style="dominant-baseline: middle; font-size: 10.2px;" transform="translate(155.9765625,57)" y="0" x="0" id="text-entity-dboSurveys-49d197dc-0816-5cb6-8e4a-ce7590474064-attr-2-comment" class="er entityLabel">FK</text><rect height="22" width="73.5" y="68" x="0" class="er attributeBoxOdd"></rect><text style="dominant-baseline: middle; font-size: 10.2px;" transform="translate(5,79)" y="0" x="0" id="text-entity-dboSurveys-49d197dc-0816-5cb6-8e4a-ce7590474064-attr-3-type" class="er entityLabel">int</text><rect height="22" width="77.4765625" y="68" x="73.5" class="er attributeBoxOdd"></rect><text style="dominant-baseline: middle; font-size: 10.2px;" transform="translate(78.5,79)" y="0" x="0" id="text-entity-dboSurveys-49d197dc-0816-5cb6-8e4a-ce7590474064-attr-3-name" class="er entityLabel">Rating</text><rect height="22" width="23.609375" y="68" x="150.9765625" class="er attributeBoxOdd"></rect><text style="dominant-baseline: middle; font-size: 10.2px;" transform="translate(155.9765625,79)" y="0" x="0" id="text-entity-dboSurveys-49d197dc-0816-5cb6-8e4a-ce7590474064-attr-3-comment" class="er entityLabel"></text><rect height="22" width="73.5" y="90" x="0" class="er attributeBoxEven"></rect><text style="dominant-baseline: middle; font-size: 10.2px;" transform="translate(5,101)" y="0" x="0" id="text-entity-dboSurveys-49d197dc-0816-5cb6-8e4a-ce7590474064-attr-4-type" class="er entityLabel">nvarchar(500)</text><rect height="22" width="77.4765625" y="90" x="73.5" class="er attributeBoxEven"></rect><text style="dominant-baseline: middle; font-size: 10.2px;" transform="translate(78.5,101)" y="0" x="0" id="text-entity-dboSurveys-49d197dc-0816-5cb6-8e4a-ce7590474064-attr-4-name" class="er entityLabel">Comment</text><rect height="22" width="23.609375" y="90" x="150.9765625" class="er attributeBoxEven"></rect><text style="dominant-baseline: middle; font-size: 10.2px;" transform="translate(155.9765625,101)" y="0" x="0" id="text-entity-dboSurveys-49d197dc-0816-5cb6-8e4a-ce7590474064-attr-4-comment" class="er entityLabel"></text><rect height="22" width="73.5" y="112" x="0" class="er attributeBoxOdd"></rect><text style="dominant-baseline: middle; font-size: 10.2px;" transform="translate(5,123)" y="0" x="0" id="text-entity-dboSurveys-49d197dc-0816-5cb6-8e4a-ce7590474064-attr-5-type" class="er entityLabel">date</text><rect height="22" width="77.4765625" y="112" x="73.5" class="er attributeBoxOdd"></rect><text style="dominant-baseline: middle; font-size: 10.2px;" transform="translate(78.5,123)" y="0" x="0" id="text-entity-dboSurveys-49d197dc-0816-5cb6-8e4a-ce7590474064-attr-5-name" class="er entityLabel">ResponseDate</text><rect height="22" width="23.609375" y="112" x="150.9765625" class="er attributeBoxOdd"></rect><text style="dominant-baseline: middle; font-size: 10.2px;" transform="translate(155.9765625,123)" y="0" x="0" id="text-entity-dboSurveys-49d197dc-0816-5cb6-8e4a-ce7590474064-attr-5-comment" class="er entityLabel"></text></g><rect height="14" width="74.6953125" y="586.39306640625" x="336.7555236816406" class="er relationshipLabelBox"></rect><text style="text-anchor: middle; dominant-baseline: middle; font-size: 12px;" y="593.39306640625" x="374.1031799316406" id="rel1" class="er relationshipLabel">DepartmentID</text><rect height="14" width="49.359375" y="504.72039794921875" x="274.1982421875" class="er relationshipLabelBox"></rect><text style="text-anchor: middle; dominant-baseline: middle; font-size: 12px;" y="511.72039794921875" x="298.8779296875" id="rel2" class="er relationshipLabel">PatientID</text><rect height="14" width="74.6953125" y="591.74609375" x="601.0592041015625" class="er relationshipLabelBox"></rect><text style="text-anchor: middle; dominant-baseline: middle; font-size: 12px;" y="598.74609375" x="638.4068603515625" id="rel3" class="er relationshipLabel">DepartmentID</text><rect height="14" width="34.4609375" y="273.9281005859375" x="399.06085205078125" class="er relationshipLabelBox"></rect><text style="text-anchor: middle; dominant-baseline: middle; font-size: 12px;" y="280.9281005859375" x="416.29132080078125" id="rel4" class="er relationshipLabel">VisitID</text><rect height="14" width="36.46875" y="259.05694580078125" x="208.98049926757812" class="er relationshipLabelBox"></rect><text style="text-anchor: middle; dominant-baseline: middle; font-size: 12px;" y="266.05694580078125" x="227.21487426757812" id="rel5" class="er relationshipLabel">StaffID</text><rect height="14" width="34.4609375" y="230" x="579.4805297851562" class="er relationshipLabelBox"></rect><text style="text-anchor: middle; dominant-baseline: middle; font-size: 12px;" y="237" x="596.7109985351562" id="rel6" class="er relationshipLabel">VisitID</text></svg>